HIERARCHY
ROOT Hips
{
 OFFSET 0.000000 0.000000 0.000000
 CHANNELS 6 Xposition Yposition Zposition Yrotation Xrotation Zrotation
 JOINT Chest
 {
  OFFSET 0.000000 9.585900 0.002600
  CHANNELS 3 Yrotation Xrotation Zrotation
  JOINT Chest2
  {
   OFFSET 0.000000 9.601200 -0.005300
   CHANNELS 3 Yrotation Xrotation Zrotation
   JOINT Chest3
   {
    OFFSET 0.000000 9.561800 0.000000
    CHANNELS 3 Yrotation Xrotation Zrotation
    JOINT Chest4
    {
     OFFSET 0.000000 9.552100 0.000000
     CHANNELS 3 Yrotation Xrotation Zrotation
     JOINT Neck
     {
      OFFSET 0.000000 14.453000 0.000000
      CHANNELS 3 Yrotation Xrotation Zrotation
      JOINT Head
      {
       OFFSET 0.000000 8.936500 -0.011300
       CHANNELS 3 Yrotation Xrotation Zrotation
       End Site
       {
        OFFSET 0.000000 17.073600 -0.006000
       }
      }
     }
     JOINT RightCollar
     {
      OFFSET -2.921100 9.558500 0.000000
      CHANNELS 3 Yrotation Xrotation Zrotation
      JOINT RightShoulder
      {
       OFFSET -13.519700 0.000000 0.000000
       CHANNELS 3 Yrotation Xrotation Zrotation
       JOINT RightElbow
       {
        OFFSET 0.000000 -29.696600 0.000000
        CHANNELS 3 Yrotation Xrotation Zrotation
        JOINT RightWrist
        {
         OFFSET 0.000000 -24.004700 0.000000
         CHANNELS 3 Yrotation Xrotation Zrotation
         End Site
         {
          OFFSET 0.000000 -17.728500 0.000000
         }
        }
       }
      }
     }
     JOINT LeftCollar
     {
      OFFSET 2.921100 9.558500 0.000000
      CHANNELS 3 Yrotation Xrotation Zrotation
      JOINT LeftShoulder
      {
       OFFSET 13.519700 0.000000 0.000000
       CHANNELS 3 Yrotation Xrotation Zrotation
       JOINT LeftElbow
       {
        OFFSET 0.000000 -29.696600 0.000000
        CHANNELS 3 Yrotation Xrotation Zrotation
        JOINT LeftWrist
        {
         OFFSET 0.000000 -24.004700 0.000000
         CHANNELS 3 Yrotation Xrotation Zrotation
         End Site
         {
          OFFSET 0.000000 -17.728500 0.000000
         }
        }
       }
      }
     }
    }
   }
  }
 }
 JOINT RightHip
 {
  OFFSET -7.771700 -0.012900 -0.001300
  CHANNELS 3 Yrotation Xrotation Zrotation
  JOINT RightKnee
  {
   OFFSET 0.000000 -40.869800 0.001200
   CHANNELS 3 Yrotation Xrotation Zrotation
   JOINT RightAnkle
   {
    OFFSET 0.000000 -39.717900 0.002100
    CHANNELS 3 Yrotation Xrotation Zrotation
    JOINT RightToe
    {
     OFFSET 0.000000 -4.965400 11.033500
     CHANNELS 3 Yrotation Xrotation Zrotation
     End Site
     {
      OFFSET 0.000000 -1.423100 5.872300
     }
    }
   }
  }
 }
 JOINT LeftHip
 {
  OFFSET 7.771700 -0.012900 -0.001300
  CHANNELS 3 Yrotation Xrotation Zrotation
  JOINT LeftKnee
  {
   OFFSET 0.000000 -40.869800 0.001200
   CHANNELS 3 Yrotation Xrotation Zrotation
   JOINT LeftAnkle
   {
    OFFSET 0.000000 -39.717900 0.002100
    CHANNELS 3 Yrotation Xrotation Zrotation
    JOINT LeftToe
    {
     OFFSET 0.000000 -4.965400 11.033500
     CHANNELS 3 Yrotation Xrotation Zrotation
     End Site
     {
      OFFSET 0.000000 -1.423100 5.872300
     }
    }
   }
  }
 }
}
MOTION
Frames: 16
Frame Time: 0.008333
-22.587382 62.173653 12.061608 177.705232 -52.009390 -0.326485 4.205541 27.415307 1.613648 0.607977 4.778207 0.251137 0.973007 7.551456 0.421400 3.138549 22.123318 1.665232 -0.287589 16.791057 0.905116 -0.851438 -4.637516 1.758600 3.836854 4.400913 2.963539 -3.454494 -10.148319 -12.202489 -114.127560 -58.715427 151.295108 11.454165 1.002874 -2.976992 -8.139757 1.730219 1.878989 -2.096609 -7.910197 13.138889 148.300412 -71.051760 -170.941506 9.529449 -5.305906 -8.862222 2.335450 -15.014643 -7.300918 -1.395988 62.116707 -5.210465 1.304729 -8.874642 10.485710 0.229087 -0.516799 0.103626 -4.647904 -11.976395 -0.048327 27.559347 75.957215 28.353361 1.381660 -11.420295 -3.867597 0.283458 0.714016 0.114972
-22.586899 62.174333 12.060859 177.707613 -51.996139 -0.334003 4.202414 27.418671 1.624089 0.606767 4.778401 0.250860 0.972011 7.547904 0.418352 3.138484 22.131104 1.668937 -0.274304 16.777626 0.899283 -0.853002 -4.648387 1.753658 3.868103 4.388907 2.967073 -3.455146 -10.159353 -12.208522 -114.116392 -58.729610 151.286212 11.445922 1.017748 -2.966043 -8.148209 1.714288 1.874829 -2.077878 -7.881243 13.134081 148.343966 -71.051392 -170.995019 9.545264 -5.278941 -8.856798 2.331159 -15.026243 -7.294857 -1.388628 62.117341 -5.205668 1.305890 -8.887922 10.487120 0.226279 -0.511393 0.102326 -4.667887 -11.989178 -0.057571 27.608371 75.953414 28.402299 1.423314 -11.418819 -3.889835 0.290613 0.715246 0.118555
-22.588430 62.173939 12.061048 177.702939 -51.974535 -0.324365 4.198889 27.405648 1.618344 0.606123 4.778430 0.250673 0.971842 7.544148 0.415467 3.125608 22.151656 1.676727 -0.251872 16.760744 0.889868 -0.815163 -4.667196 1.736642 3.936314 4.368332 2.978451 -3.488704 -10.166814 -12.225708 -114.084504 -58.738523 151.282687 11.460384 1.020355 -2.992586 -8.144182 1.697104 1.867196 -2.067221 -7.885116 13.130272 148.318872 -71.075912 -170.974540 9.549215 -5.282093 -8.851188 2.335406 -15.047518 -7.304645 -1.384752 62.118847 -5.198710 1.305365 -8.904242 10.481889 0.228700 -0.502146 0.105189 -4.666935 -12.010266 -0.061484 27.575213 75.956311 28.383069 1.356620 -11.424416 -3.876391 0.274298 0.713794 0.109308
-22.590491 62.174514 12.060592 177.707055 -51.960021 -0.317671 4.190028 27.399443 1.610871 0.605346 4.778475 0.250508 0.968833 7.552039 0.420500 3.105237 22.159864 1.671702 -0.229704 16.747395 0.881057 -0.772883 -4.686874 1.718642 3.962405 4.347424 2.965929 -3.492032 -10.167939 -12.226215 -114.069133 -58.741752 151.278552 11.447470 1.031560 -2.975469 -8.138910 1.681982 1.857624 -2.052659 -7.879193 13.124457 148.275547 -71.100770 -170.950987 9.542228 -5.296619 -8.840407 2.335494 -15.059256 -7.319982 -1.373672 62.119169 -5.184259 1.304704 -8.923254 10.476643 0.228209 -0.492527 0.107257 -4.677691 -12.024546 -0.077873 27.593694 75.953231 28.405011 1.328630 -11.427730 -3.864254 0.263541 0.713538 0.099151
-22.591705 62.175252 12.060165 177.700973 -51.946213 -0.306638 4.180027 27.401884 1.603112 0.592114 4.794433 0.253426 0.963436 7.553312 0.418078 3.098874 22.153090 1.661174 -0.203793 16.733020 0.873117 -0.691407 -4.711577 1.690645 4.020198 4.325290 2.972178 -3.494064 -10.173778 -12.239906 -113.985842 -58.755027 151.225095 11.463404 1.040074 -2.980030 -8.139655 1.676347 1.848662 -2.021790 -7.887920 13.115124 148.281167 -71.105776 -170.966032 9.547873 -5.289028 -8.841119 2.341321 -15.071631 -7.327655 -1.359833 62.119903 -5.171662 1.298175 -8.936397 10.475812 0.227587 -0.488248 0.107029 -4.686825 -12.037275 -0.098068 27.634539 75.945707 28.448790 1.332645 -11.425819 -3.860642 0.257806 0.712846 0.084087
-22.591423 62.175604 12.060107 177.702360 -51.929582 -0.308638 4.164339 27.405639 1.601415 0.601224 4.779299 0.248988 0.962375 7.553202 0.417572 3.084925 22.168841 1.662442 -0.185412 16.720325 0.867689 -0.636326 -4.728921 1.673223 4.092744 4.317660 2.986352 -3.515599 -10.192275 -12.255050 -113.958689 -58.766473 151.195900 11.477481 1.043962 -2.991895 -8.130655 1.660648 1.841162 -2.007821 -7.862149 13.113243 148.267256 -71.098901 -170.982383 9.545182 -5.283438 -8.829886 2.340499 -15.089696 -7.328481 -1.355487 62.124693 -5.165626 1.299073 -8.946199 10.473874 0.225086 -0.490844 0.104706 -4.691562 -12.053392 -0.102400 27.630519 75.944583 28.451698 1.340937 -11.425728 -3.869112 0.232208 0.712606 0.089205
-22.590272 62.174625 12.061158 177.692057 -51.902489 -0.304818 4.161860 27.396755 1.603150 0.599785 4.779706 0.248516 0.959941 7.553859 0.417018 3.082876 22.171079 1.658740 -0.174259 16.702176 0.861157 -0.614306 -4.735372 1.667323 4.131013 4.302841 2.988376 -3.484836 -10.201606 -12.248390 -113.960509 -58.792478 151.168196 11.497751 1.041474 -3.008247 -8.127905 1.642953 1.835887 -1.999891 -7.860590 13.113941 148.160214 -71.135358 -170.908449 9.529708 -5.300523 -8.821058 2.345868 -15.118040 -7.325526 -1.351954 62.126422 -5.158258 1.295245 -8.960863 10.465163 0.227578 -0.483239 0.107792 -4.690644 -12.079797 -0.101032 27.649708 75.941901 28.469516 1.366788 -11.429336 -3.874322 0.208759 0.717439 0.093155
-22.589666 62.175533 12.060662 177.678813 -51.889949 -0.293135 4.162132 27.404158 1.598277 0.599261 4.780272 0.248472 0.953892 7.563995 0.417650 3.088270 22.151415 1.654131 -0.157961 16.703763 0.862728 -0.602354 -4.750789 1.661808 4.167325 4.298041 2.995862 -3.499678 -10.209461 -12.253788 -113.937521 -58.796407 151.149091 11.496668 1.052569 -3.006510 -8.155494 1.639309 1.832009 -1.966842 -7.841120 13.115532 148.186231 -71.120143 -170.935590 9.529640 -5.299622 -8.822060 2.355272 -15.129325 -7.324760 -1.353457 62.128143 -5.159042 1.289547 -8.979016 10.452519 0.229367 -0.469771 0.119323 -4.696758 -12.088737 -0.106449 27.676844 75.937689 28.492031 1.369673 -11.436257 -3.874813 0.292064 0.724757 0.089919
-22.588522 62.176797 12.059885 177.675244 -51.880270 -0.290735 4.150224 27.420717 1.592953 0.602273 4.772557 0.247405 0.958277 7.555233 0.416605 3.086732 22.151888 1.653393 -0.130482 16.711165 0.869172 -0.523868 -4.783460 1.648747 4.207990 4.293749 3.003873 -3.517701 -10.217824 -12.259577 -113.938108 -58.802461 151.141196 11.486121 1.066713 -2.987032 -8.168277 1.634434 1.826282 -1.971612 -7.809903 13.120416 148.212832 -71.120682 -170.956454 9.530278 -5.301806 -8.810818 2.356204 -15.138412 -7.323191 -1.345034 62.129265 -5.150236 1.280280 -8.984805 10.447575 0.228836 -0.474605 0.118070 -4.699907 -12.096786 -0.104664 27.653003 75.941431 28.467154 1.370310 -11.437793 -3.868375 0.261331 0.722068 0.086805
-22.586132 62.178626 12.058712 177.665282 -51.875198 -0.289798 4.155896 27.423303 1.599344 0.597730 4.781725 0.247342 0.944906 7.576184 0.414340 3.092287 22.135015 1.645812 -0.114495 16.693151 0.867600 -0.449919 -4.796017 1.640843 4.255930 4.275776 3.012874 -3.499638 -10.219589 -12.253156 -113.934588 -58.825971 151.106304 11.468694 1.091572 -2.950502 -8.178755 1.618559 1.822378 -1.962075 -7.793591 13.124790 148.164172 -71.166409 -170.932854 9.527551 -5.327408 -8.772074 2.360994 -15.142840 -7.313298 -1.357458 62.130269 -5.161614 1.284145 -8.991013 10.444221 0.227423 -0.486874 0.115439 -4.700226 -12.100313 -0.095725 27.648678 75.950044 28.462207 1.367266 -11.443872 -3.862175 0.251820 0.716788 0.087467
-22.583936 62.179371 12.058417 177.655311 -51.862191 -0.287679 4.142223 27.441725 1.594801 0.599271 4.780472 0.245808 0.955106 7.561195 0.412324 3.084957 22.142684 1.640756 -0.087090 16.683021 0.869319 -0.395775 -4.816314 1.634786 4.303671 4.254716 3.022554 -3.490805 -10.214918 -12.250775 -113.939029 -58.839517 151.096589 11.471192 1.102803 -2.953594 -8.174223 1.597059 1.822486 -1.965910 -7.773611 13.125326 148.179568 -71.178628 -170.947543 9.525998 -5.341237 -8.760339 2.361656 -15.156065 -7.306727 -1.352869 62.129362 -5.158127 1.285055 -8.994575 10.443693 0.225092 -0.485216 0.112184 -4.697677 -12.112599 -0.090842 27.657554 75.949238 28.467156 1.404803 -11.438326 -3.870537 0.202189 0.711671 0.094642
-22.584137 62.180109 12.058129 177.651113 -51.849185 -0.275975 4.130537 27.445410 1.579824 0.596250 4.786414 0.245472 0.956997 7.558970 0.412043 3.067973 22.168651 1.637357 -0.035036 16.658700 0.870092 -0.389896 -4.841509 1.629916 4.344044 4.211554 3.016347 -3.471746 -10.208680 -12.247489 -113.931452 -58.854897 151.076267 11.466475 1.103176 -2.948731 -8.160402 1.551489 1.819432 -1.970372 -7.752067 13.124051 148.166636 -71.191963 -170.943471 9.527371 -5.338408 -8.742167 2.365697 -15.170123 -7.318471 -1.356331 62.133021 -5.157826 1.289856 -8.998584 10.440993 0.228365 -0.490203 0.110353 -4.694625 -12.125458 -0.094520 27.638133 75.952226 28.450096 1.376855 -11.438653 -3.856937 0.219114 0.708281 0.085340
-22.582053 62.181090 12.057918 177.642779 -51.838100 -0.275023 4.130600 27.449733 1.584470 0.595610 4.788104 0.245492 0.953101 7.566258 0.411937 3.066860 22.167147 1.636060 -0.002042 16.649624 0.872966 -0.379805 -4.860417 1.622613 4.397691 4.191921 3.018881 -3.496405 -10.209480 -12.253586 -113.880786 -58.860425 151.033815 11.464812 1.099801 -2.939070 -8.178541 1.528260 1.810890 -1.959767 -7.729147 13.125084 148.152080 -71.203321 -170.938755 9.529143 -5.335863 -8.725642 2.365307 -15.181878 -7.311147 -1.354491 62.132954 -5.157137 1.288704 -8.998749 10.440533 0.224498 -0.496429 0.106030 -4.694599 -12.134271 -0.086942 27.618822 75.954800 28.431374 1.385919 -11.441087 -3.858167 0.214645 0.708425 0.083945
-22.580596 62.182048 12.057927 177.647277 -51.826693 -0.280770 4.122098 27.454165 1.589069 0.594911 4.785629 0.242782 0.950853 7.573956 0.414222 3.066560 22.158569 1.630048 0.023806 16.649187 0.879300 -0.270455 -4.892748 1.608653 4.448939 4.183084 3.025666 -3.522064 -10.210061 -12.258836 -113.765749 -58.861307 150.950870 11.491482 1.086300 -2.944040 -8.204949 1.518992 1.803265 -1.944222 -7.709408 13.129591 148.185363 -71.195851 -170.961646 9.556437 -5.307407 -8.732931 2.356747 -15.191338 -7.307013 -1.346323 62.131111 -5.151807 1.281682 -9.005452 10.440584 0.226134 -0.491547 0.103551 -4.704454 -12.146995 -0.085910 27.632675 75.955210 28.437908 1.423539 -11.433272 -3.861893 0.217686 0.702886 0.087505
-22.579013 62.183081 12.058188 177.647181 -51.815357 -0.283896 4.118893 27.459236 1.597408 0.596064 4.773775 0.236054 0.945596 7.591271 0.420435 3.064011 22.150155 1.623203 0.039543 16.642242 0.879023 -0.177914 -4.918368 1.596298 4.492307 4.173450 3.030809 -3.496456 -10.196638 -12.235157 -113.775593 -58.890227 150.943130 11.495270 1.087710 -2.942733 -8.255041 1.497597 1.789238 -1.903385 -7.677672 13.141513 148.142261 -71.207307 -170.935977 9.587475 -5.259577 -8.733887 2.344998 -15.199153 -7.305085 -1.347981 62.124008 -5.154243 1.291534 -9.017940 10.438245 0.225915 -0.486122 0.100765 -4.714728 -12.159183 -0.078140 27.636605 75.956572 28.431753 1.436181 -11.425581 -3.862046 0.215305 0.696141 0.088235
-22.578411 62.183895 12.058858 177.658575 -51.802119 -0.290473 4.106661 27.459061 1.597351 0.596624 4.779446 0.240757 0.939271 7.594390 0.417117 3.053773 22.155497 1.620457 0.060921 16.622054 0.871785 -0.100202 -4.942575 1.581605 4.541350 4.151186 3.030199 -3.500034 -10.190139 -12.226108 -113.713722 -58.898189 150.901891 11.511570 1.089406 -2.947787 -8.273308 1.459471 1.775474 -1.885043 -7.648643 13.150058 148.000189 -71.262755 -170.843027 9.553841 -5.322763 -8.701242 2.336454 -15.210863 -7.309311 -1.354933 62.122618 -5.158692 1.298626 -9.024661 10.438101 0.224280 -0.481677 0.098387 -4.722660 -12.172750 -0.079019 27.610839 75.956159 28.406522 1.454015 -11.420400 -3.875041 0.233530 0.696498 0.099285
